G04 #@! TF.GenerationSoftware,KiCad,Pcbnew,(5.1.9)-1*
G04 #@! TF.CreationDate,2026-02-08T23:10:15+09:00*
G04 #@! TF.ProjectId,MZ700_EMM,4d5a3730-305f-4454-9d4d-2e6b69636164,rev?*
G04 #@! TF.SameCoordinates,PX53920b0PY93c3260*
G04 #@! TF.FileFunction,Soldermask,Bot*
G04 #@! TF.FilePolarity,Negative*
%FSLAX46Y46*%
G04 Gerber Fmt 4.6, Leading zero omitted, Abs format (unit mm)*
G04 Created by KiCad (PCBNEW (5.1.9)-1) date 2026-02-08 23:10:15*
%MOMM*%
%LPD*%
G01*
G04 APERTURE LIST*
%ADD10R,1.700000X1.700000*%
%ADD11O,1.700000X1.700000*%
%ADD12R,3.500000X3.500000*%
%ADD13C,3.200000*%
%ADD14R,1.600000X1.600000*%
%ADD15C,1.600000*%
%ADD16C,3.000000*%
%ADD17R,3.000000X3.000000*%
%ADD18O,2.200000X2.200000*%
%ADD19R,2.200000X2.200000*%
%ADD20O,1.600000X1.600000*%
%ADD21R,1.600000X2.400000*%
%ADD22O,1.600000X2.400000*%
%ADD23C,1.300000*%
%ADD24R,1.300000X1.300000*%
G04 APERTURE END LIST*
D10*
X10160000Y85725000D03*
D11*
X10160000Y88265000D03*
D12*
X20320000Y85090000D03*
G36*
G01*
X19320000Y92590000D02*
X21320000Y92590000D01*
G75*
G02*
X22070000Y91840000I0J-750000D01*
G01*
X22070000Y90340000D01*
G75*
G02*
X21320000Y89590000I-750000J0D01*
G01*
X19320000Y89590000D01*
G75*
G02*
X18570000Y90340000I0J750000D01*
G01*
X18570000Y91840000D01*
G75*
G02*
X19320000Y92590000I750000J0D01*
G01*
G37*
G36*
G01*
X14745000Y89840000D02*
X16495000Y89840000D01*
G75*
G02*
X17370000Y88965000I0J-875000D01*
G01*
X17370000Y87215000D01*
G75*
G02*
X16495000Y86340000I-875000J0D01*
G01*
X14745000Y86340000D01*
G75*
G02*
X13870000Y87215000I0J875000D01*
G01*
X13870000Y88965000D01*
G75*
G02*
X14745000Y89840000I875000J0D01*
G01*
G37*
D10*
X8000000Y77500000D03*
D11*
X5460000Y77500000D03*
X8000000Y74960000D03*
X5460000Y74960000D03*
X8000000Y72420000D03*
X5460000Y72420000D03*
X8000000Y69880000D03*
X5460000Y69880000D03*
X8000000Y67340000D03*
X5460000Y67340000D03*
X8000000Y64800000D03*
X5460000Y64800000D03*
X8000000Y62260000D03*
X5460000Y62260000D03*
X8000000Y59720000D03*
X5460000Y59720000D03*
X8000000Y57180000D03*
X5460000Y57180000D03*
X8000000Y54640000D03*
X5460000Y54640000D03*
X8000000Y52100000D03*
X5460000Y52100000D03*
X8000000Y49560000D03*
X5460000Y49560000D03*
X8000000Y47020000D03*
X5460000Y47020000D03*
X8000000Y44480000D03*
X5460000Y44480000D03*
X8000000Y41940000D03*
X5460000Y41940000D03*
X8000000Y39400000D03*
X5460000Y39400000D03*
X8000000Y36860000D03*
X5460000Y36860000D03*
X8000000Y34320000D03*
X5460000Y34320000D03*
X8000000Y31780000D03*
X5460000Y31780000D03*
X8000000Y29240000D03*
X5460000Y29240000D03*
X8000000Y26700000D03*
X5460000Y26700000D03*
X8000000Y24160000D03*
X5460000Y24160000D03*
X8000000Y21620000D03*
X5460000Y21620000D03*
X8000000Y19080000D03*
X5460000Y19080000D03*
X8000000Y16540000D03*
X5460000Y16540000D03*
D10*
X31115000Y95885000D03*
D11*
X33655000Y95885000D03*
X36195000Y95885000D03*
D13*
X5000000Y95000000D03*
X95000000Y95000000D03*
X95000000Y5000000D03*
X5000000Y5000000D03*
D14*
X33655000Y88900000D03*
D15*
X33655000Y86400000D03*
D16*
X91610000Y73660000D03*
D17*
X71120000Y73660000D03*
D15*
X15875000Y20955000D03*
X15875000Y18455000D03*
X15875000Y33655000D03*
X15875000Y31155000D03*
X15875000Y74335000D03*
X15875000Y76835000D03*
X15875000Y50713000D03*
X15875000Y53213000D03*
X69215000Y8890000D03*
X69215000Y6390000D03*
X43180000Y33655000D03*
X43180000Y31155000D03*
X43180000Y6110000D03*
X43180000Y8610000D03*
X43180000Y20955000D03*
X43180000Y18455000D03*
X41910000Y78145000D03*
X41910000Y80645000D03*
X69215000Y33655000D03*
X69215000Y31155000D03*
X41910000Y93980000D03*
X41910000Y91480000D03*
X67310000Y91480000D03*
X67310000Y93980000D03*
X53975000Y48300000D03*
X53975000Y50800000D03*
X69215000Y20955000D03*
X69215000Y18455000D03*
X19090000Y41402000D03*
X21590000Y41402000D03*
D18*
X63175000Y65365000D03*
D19*
X53015000Y65365000D03*
X53015000Y70445000D03*
D18*
X63175000Y70445000D03*
D15*
X24765000Y41402000D03*
D20*
X32385000Y41402000D03*
D10*
X24130000Y5080000D03*
D11*
X26670000Y5080000D03*
X29210000Y5080000D03*
X29210000Y8890000D03*
X26670000Y8890000D03*
D10*
X24130000Y8890000D03*
D21*
X19050000Y15645000D03*
D22*
X34290000Y23265000D03*
X21590000Y15645000D03*
X31750000Y23265000D03*
X24130000Y15645000D03*
X29210000Y23265000D03*
X26670000Y15645000D03*
X26670000Y23265000D03*
X29210000Y15645000D03*
X24130000Y23265000D03*
X31750000Y15645000D03*
X21590000Y23265000D03*
X34290000Y15645000D03*
X19050000Y23265000D03*
X19050000Y36360000D03*
X34290000Y28740000D03*
X21590000Y36360000D03*
X31750000Y28740000D03*
X24130000Y36360000D03*
X29210000Y28740000D03*
X26670000Y36360000D03*
X26670000Y28740000D03*
X29210000Y36360000D03*
X24130000Y28740000D03*
X31750000Y36360000D03*
X21590000Y28740000D03*
X34290000Y36360000D03*
D21*
X19050000Y28740000D03*
X19050000Y47923000D03*
D22*
X41910000Y55543000D03*
X21590000Y47923000D03*
X39370000Y55543000D03*
X24130000Y47923000D03*
X36830000Y55543000D03*
X26670000Y47923000D03*
X34290000Y55543000D03*
X29210000Y47923000D03*
X31750000Y55543000D03*
X31750000Y47923000D03*
X29210000Y55543000D03*
X34290000Y47923000D03*
X26670000Y55543000D03*
X36830000Y47923000D03*
X24130000Y55543000D03*
X39370000Y47923000D03*
X21590000Y55543000D03*
X41910000Y47923000D03*
X19050000Y55543000D03*
X19050000Y79375000D03*
X34290000Y71755000D03*
X21590000Y79375000D03*
X31750000Y71755000D03*
X24130000Y79375000D03*
X29210000Y71755000D03*
X26670000Y79375000D03*
X26670000Y71755000D03*
X29210000Y79375000D03*
X24130000Y71755000D03*
X31750000Y79375000D03*
X21590000Y71755000D03*
X34290000Y79375000D03*
D21*
X19050000Y71755000D03*
D22*
X46355000Y36195000D03*
X64135000Y28575000D03*
X48895000Y36195000D03*
X61595000Y28575000D03*
X51435000Y36195000D03*
X59055000Y28575000D03*
X53975000Y36195000D03*
X56515000Y28575000D03*
X56515000Y36195000D03*
X53975000Y28575000D03*
X59055000Y36195000D03*
X51435000Y28575000D03*
X61595000Y36195000D03*
X48895000Y28575000D03*
X64135000Y36195000D03*
D21*
X46355000Y28575000D03*
X46355000Y3810000D03*
D22*
X64135000Y11430000D03*
X48895000Y3810000D03*
X61595000Y11430000D03*
X51435000Y3810000D03*
X59055000Y11430000D03*
X53975000Y3810000D03*
X56515000Y11430000D03*
X56515000Y3810000D03*
X53975000Y11430000D03*
X59055000Y3810000D03*
X51435000Y11430000D03*
X61595000Y3810000D03*
X48895000Y11430000D03*
X64135000Y3810000D03*
X46355000Y11430000D03*
X46355000Y23690000D03*
X64135000Y16070000D03*
X48895000Y23690000D03*
X61595000Y16070000D03*
X51435000Y23690000D03*
X59055000Y16070000D03*
X53975000Y23690000D03*
X56515000Y16070000D03*
X56515000Y23690000D03*
X53975000Y16070000D03*
X59055000Y23690000D03*
X51435000Y16070000D03*
X61595000Y23690000D03*
X48895000Y16070000D03*
X64135000Y23690000D03*
D21*
X46355000Y16070000D03*
X45085000Y75565000D03*
D22*
X62865000Y83185000D03*
X47625000Y75565000D03*
X60325000Y83185000D03*
X50165000Y75565000D03*
X57785000Y83185000D03*
X52705000Y75565000D03*
X55245000Y83185000D03*
X55245000Y75565000D03*
X52705000Y83185000D03*
X57785000Y75565000D03*
X50165000Y83185000D03*
X60325000Y75565000D03*
X47625000Y83185000D03*
X62865000Y75565000D03*
X45085000Y83185000D03*
D21*
X72390000Y28575000D03*
D22*
X90170000Y36195000D03*
X74930000Y28575000D03*
X87630000Y36195000D03*
X77470000Y28575000D03*
X85090000Y36195000D03*
X80010000Y28575000D03*
X82550000Y36195000D03*
X82550000Y28575000D03*
X80010000Y36195000D03*
X85090000Y28575000D03*
X77470000Y36195000D03*
X87630000Y28575000D03*
X74930000Y36195000D03*
X90170000Y28575000D03*
X72390000Y36195000D03*
D21*
X45085000Y88900000D03*
D22*
X62865000Y96520000D03*
X47625000Y88900000D03*
X60325000Y96520000D03*
X50165000Y88900000D03*
X57785000Y96520000D03*
X52705000Y88900000D03*
X55245000Y96520000D03*
X55245000Y88900000D03*
X52705000Y96520000D03*
X57785000Y88900000D03*
X50165000Y96520000D03*
X60325000Y88900000D03*
X47625000Y96520000D03*
X62865000Y88900000D03*
X45085000Y96520000D03*
X70485000Y96375000D03*
X88265000Y88755000D03*
X73025000Y96375000D03*
X85725000Y88755000D03*
X75565000Y96375000D03*
X83185000Y88755000D03*
X78105000Y96375000D03*
X80645000Y88755000D03*
X80645000Y96375000D03*
X78105000Y88755000D03*
X83185000Y96375000D03*
X75565000Y88755000D03*
X85725000Y96375000D03*
X73025000Y88755000D03*
X88265000Y96375000D03*
D21*
X70485000Y88755000D03*
X57150000Y41910000D03*
D22*
X95250000Y57150000D03*
X59690000Y41910000D03*
X92710000Y57150000D03*
X62230000Y41910000D03*
X90170000Y57150000D03*
X64770000Y41910000D03*
X87630000Y57150000D03*
X67310000Y41910000D03*
X85090000Y57150000D03*
X69850000Y41910000D03*
X82550000Y57150000D03*
X72390000Y41910000D03*
X80010000Y57150000D03*
X74930000Y41910000D03*
X77470000Y57150000D03*
X77470000Y41910000D03*
X74930000Y57150000D03*
X80010000Y41910000D03*
X72390000Y57150000D03*
X82550000Y41910000D03*
X69850000Y57150000D03*
X85090000Y41910000D03*
X67310000Y57150000D03*
X87630000Y41910000D03*
X64770000Y57150000D03*
X90170000Y41910000D03*
X62230000Y57150000D03*
X92710000Y41910000D03*
X59690000Y57150000D03*
X95250000Y41910000D03*
X57150000Y57150000D03*
X72390000Y23495000D03*
X95250000Y15875000D03*
X74930000Y23495000D03*
X92710000Y15875000D03*
X77470000Y23495000D03*
X90170000Y15875000D03*
X80010000Y23495000D03*
X87630000Y15875000D03*
X82550000Y23495000D03*
X85090000Y15875000D03*
X85090000Y23495000D03*
X82550000Y15875000D03*
X87630000Y23495000D03*
X80010000Y15875000D03*
X90170000Y23495000D03*
X77470000Y15875000D03*
X92710000Y23495000D03*
X74930000Y15875000D03*
X95250000Y23495000D03*
D21*
X72390000Y15875000D03*
D15*
X15875000Y65405000D03*
X15875000Y62905000D03*
D10*
X97790000Y84455000D03*
D11*
X97790000Y86995000D03*
X97790000Y89535000D03*
D23*
X69406000Y84201000D03*
X70676000Y82931000D03*
D24*
X68136000Y82931000D03*
D20*
X67628000Y62992000D03*
D15*
X75248000Y62992000D03*
X48133000Y57023000D03*
D20*
X48133000Y64643000D03*
D22*
X72390000Y11430000D03*
X87630000Y3810000D03*
X74930000Y11430000D03*
X85090000Y3810000D03*
X77470000Y11430000D03*
X82550000Y3810000D03*
X80010000Y11430000D03*
X80010000Y3810000D03*
X82550000Y11430000D03*
X77470000Y3810000D03*
X85090000Y11430000D03*
X74930000Y3810000D03*
X87630000Y11430000D03*
D21*
X72390000Y3810000D03*
X18986000Y60325000D03*
D22*
X34226000Y67945000D03*
X21526000Y60325000D03*
X31686000Y67945000D03*
X24066000Y60325000D03*
X29146000Y67945000D03*
X26606000Y60325000D03*
X26606000Y67945000D03*
X29146000Y60325000D03*
X24066000Y67945000D03*
X31686000Y60325000D03*
X21526000Y67945000D03*
X34226000Y60325000D03*
X18986000Y67945000D03*
M02*
