M48
; DRILL file {KiCad (5.1.9)-1} date 12/17/25 22:19:08
; FORMAT={-:-/ absolute / metric / decimal}
; #@! TF.CreationDate,2025-12-17T22:19:08+09:00
; #@! TF.GenerationSoftware,Kicad,Pcbnew,(5.1.9)-1
FMAT,2
METRIC
T1C0.300
T2C0.800
T3C1.000
T4C1.100
T5C1.500
T6C3.200
%
G90
G05
T1
X9.207Y63.406
X11.909Y37.373
X12.744Y49.203
X14.121Y14.915
X17.44Y50.079
X22.86Y28.015
X24.761Y44.841
X26.241Y20.771
X37.463Y32.257
X38.283Y29.684
X40.054Y12.446
X41.665Y38.029
X41.703Y40.454
X42.363Y13.042
X43.217Y38.603
X47.784Y40.865
X48.235Y80.152
X48.895Y20.943
X50.222Y44.211
X55.245Y24.411
X61.04Y45.382
X61.603Y65.641
X62.865Y3.599
X64.306Y38.335
X66.407Y19.357
X66.78Y29.352
X67.746Y25.135
X73.732Y25.663
X73.895Y40.448
X74.712Y50.187
X77.127Y6.549
X79.767Y37.896
X79.889Y54.874
X84.68Y39.858
X87.414Y39.857
X89.361Y40.487
X92.31Y47.803
T2
X15.875Y76.835
X15.875Y74.335
X15.875Y53.213
X15.875Y50.713
X15.875Y33.655
X15.875Y31.155
X15.875Y20.955
X15.875Y18.455
X16.002Y65.405
X16.002Y62.905
X19.05Y79.375
X19.05Y71.755
X19.05Y55.543
X19.05Y47.923
X19.05Y36.36
X19.05Y28.74
X19.05Y23.265
X19.05Y15.645
X19.081Y67.828
X19.081Y60.208
X19.09Y41.402
X21.59Y79.375
X21.59Y71.755
X21.59Y55.543
X21.59Y47.923
X21.59Y41.402
X21.59Y36.36
X21.59Y28.74
X21.59Y23.265
X21.59Y15.645
X21.621Y67.828
X21.621Y60.208
X24.13Y79.375
X24.13Y71.755
X24.13Y55.543
X24.13Y47.923
X24.13Y36.36
X24.13Y28.74
X24.13Y23.265
X24.13Y15.645
X24.161Y67.828
X24.161Y60.208
X24.765Y41.402
X26.67Y79.375
X26.67Y71.755
X26.67Y55.543
X26.67Y47.923
X26.67Y36.36
X26.67Y28.74
X26.67Y23.265
X26.67Y15.645
X26.701Y67.828
X26.701Y60.208
X29.21Y79.375
X29.21Y71.755
X29.21Y55.543
X29.21Y47.923
X29.21Y36.36
X29.21Y28.74
X29.21Y23.265
X29.21Y15.645
X29.241Y67.828
X29.241Y60.208
X31.75Y79.375
X31.75Y71.755
X31.75Y55.543
X31.75Y47.923
X31.75Y36.36
X31.75Y28.74
X31.75Y23.265
X31.75Y15.645
X31.781Y67.828
X31.781Y60.208
X32.385Y41.402
X33.655Y88.9
X33.655Y86.4
X34.29Y79.375
X34.29Y71.755
X34.29Y55.543
X34.29Y47.923
X34.29Y36.36
X34.29Y28.74
X34.29Y23.265
X34.29Y15.645
X34.321Y67.828
X34.321Y60.208
X36.83Y55.543
X36.83Y47.923
X39.37Y55.543
X39.37Y47.923
X41.91Y93.98
X41.91Y91.48
X41.91Y80.645
X41.91Y78.145
X41.91Y55.543
X41.91Y47.923
X43.18Y33.655
X43.18Y31.155
X43.18Y20.955
X43.18Y18.455
X43.18Y8.61
X43.18Y6.11
X45.085Y96.52
X45.085Y88.9
X45.085Y83.185
X45.085Y75.565
X46.355Y36.195
X46.355Y28.575
X46.355Y23.69
X46.355Y16.07
X46.355Y11.43
X46.355Y3.81
X47.625Y96.52
X47.625Y88.9
X47.625Y83.185
X47.625Y75.565
X48.895Y36.195
X48.895Y28.575
X48.895Y23.69
X48.895Y16.07
X48.895Y11.43
X48.895Y3.81
X50.165Y96.52
X50.165Y88.9
X50.165Y83.185
X50.165Y75.565
X51.435Y36.195
X51.435Y28.575
X51.435Y23.69
X51.435Y16.07
X51.435Y11.43
X51.435Y3.81
X52.705Y96.52
X52.705Y88.9
X52.705Y83.185
X52.705Y75.565
X53.975Y50.8
X53.975Y48.3
X53.975Y36.195
X53.975Y28.575
X53.975Y23.69
X53.975Y16.07
X53.975Y11.43
X53.975Y3.81
X55.245Y96.52
X55.245Y88.9
X55.245Y83.185
X55.245Y75.565
X56.515Y36.195
X56.515Y28.575
X56.515Y23.69
X56.515Y16.07
X56.515Y11.43
X56.515Y3.81
X57.15Y57.15
X57.15Y41.91
X57.785Y96.52
X57.785Y88.9
X57.785Y83.185
X57.785Y75.565
X59.055Y36.195
X59.055Y28.575
X59.055Y23.69
X59.055Y16.07
X59.055Y11.43
X59.055Y3.81
X59.69Y57.15
X59.69Y41.91
X60.325Y96.52
X60.325Y88.9
X60.325Y83.185
X60.325Y75.565
X61.595Y36.195
X61.595Y28.575
X61.595Y23.69
X61.595Y16.07
X61.595Y11.43
X61.595Y3.81
X62.23Y57.15
X62.23Y41.91
X62.865Y96.52
X62.865Y88.9
X62.865Y83.185
X62.865Y75.565
X64.135Y36.195
X64.135Y28.575
X64.135Y23.69
X64.135Y16.07
X64.135Y11.43
X64.135Y3.81
X64.77Y57.15
X64.77Y41.91
X67.31Y93.98
X67.31Y91.48
X67.31Y62.865
X67.31Y57.15
X67.31Y41.91
X69.215Y33.655
X69.215Y31.155
X69.215Y20.955
X69.215Y18.455
X69.215Y8.89
X69.215Y6.39
X69.85Y57.15
X69.85Y41.91
X70.485Y96.375
X70.485Y88.755
X72.39Y57.15
X72.39Y41.91
X72.39Y36.195
X72.39Y28.575
X72.39Y23.495
X72.39Y15.875
X72.39Y11.43
X72.39Y3.81
X73.025Y96.375
X73.025Y88.755
X74.93Y62.865
X74.93Y57.15
X74.93Y41.91
X74.93Y36.195
X74.93Y28.575
X74.93Y23.495
X74.93Y15.875
X74.93Y11.43
X74.93Y3.81
X75.565Y96.375
X75.565Y88.755
X77.47Y57.15
X77.47Y41.91
X77.47Y36.195
X77.47Y28.575
X77.47Y23.495
X77.47Y15.875
X77.47Y11.43
X77.47Y3.81
X78.105Y96.375
X78.105Y88.755
X80.01Y57.15
X80.01Y41.91
X80.01Y36.195
X80.01Y28.575
X80.01Y23.495
X80.01Y15.875
X80.01Y11.43
X80.01Y3.81
X80.645Y96.375
X80.645Y88.755
X82.55Y57.15
X82.55Y41.91
X82.55Y36.195
X82.55Y28.575
X82.55Y23.495
X82.55Y15.875
X82.55Y11.43
X82.55Y3.81
X83.185Y96.375
X83.185Y88.755
X85.09Y57.15
X85.09Y41.91
X85.09Y36.195
X85.09Y28.575
X85.09Y23.495
X85.09Y15.875
X85.09Y11.43
X85.09Y3.81
X85.725Y96.375
X85.725Y88.755
X87.63Y57.15
X87.63Y41.91
X87.63Y36.195
X87.63Y28.575
X87.63Y23.495
X87.63Y15.875
X87.63Y11.43
X87.63Y3.81
X88.265Y96.375
X88.265Y88.755
X90.17Y57.15
X90.17Y41.91
X90.17Y36.195
X90.17Y28.575
X90.17Y23.495
X90.17Y15.875
X92.71Y57.15
X92.71Y41.91
X92.71Y23.495
X92.71Y15.875
X95.25Y57.15
X95.25Y41.91
X95.25Y23.495
X95.25Y15.875
T3
X5.46Y77.5
X5.46Y74.96
X5.46Y72.42
X5.46Y69.88
X5.46Y67.34
X5.46Y64.8
X5.46Y62.26
X5.46Y59.72
X5.46Y57.18
X5.46Y54.64
X5.46Y52.1
X5.46Y49.56
X5.46Y47.02
X5.46Y44.48
X5.46Y41.94
X5.46Y39.4
X5.46Y36.86
X5.46Y34.32
X5.46Y31.78
X5.46Y29.24
X5.46Y26.7
X5.46Y24.16
X5.46Y21.62
X5.46Y19.08
X5.46Y16.54
X8.0Y77.5
X8.0Y74.96
X8.0Y72.42
X8.0Y69.88
X8.0Y67.34
X8.0Y64.8
X8.0Y62.26
X8.0Y59.72
X8.0Y57.18
X8.0Y54.64
X8.0Y52.1
X8.0Y49.56
X8.0Y47.02
X8.0Y44.48
X8.0Y41.94
X8.0Y39.4
X8.0Y36.86
X8.0Y34.32
X8.0Y31.78
X8.0Y29.24
X8.0Y26.7
X8.0Y24.16
X8.0Y21.62
X8.0Y19.08
X8.0Y16.54
X10.16Y88.265
X10.16Y85.725
X24.13Y8.89
X24.13Y5.08
X26.67Y8.89
X26.67Y5.08
X29.21Y8.89
X29.21Y5.08
X31.115Y95.885
X33.655Y95.885
X36.195Y95.885
T4
X53.015Y70.445
X53.015Y65.365
X63.175Y70.445
X63.175Y65.365
T5
X71.12Y73.66
X91.61Y73.66
T6
X5.0Y95.0
X5.0Y5.0
X95.0Y95.0
X95.0Y5.0
T3
G00X15.62Y89.09
M15
G01X15.62Y87.09
M16
G05
G00X21.32Y91.09
M15
G01X19.32Y91.09
M16
G05
G00X21.32Y85.09
M15
G01X19.32Y85.09
M16
G05
T0
M30
